<svg id="eCnIB37jTEe1"viewBox="0 0 38 38" shape-rendering="geometricPrecision" text-rendering="geometricPrecision">
    <defs>
        <linearGradient id="eCnIB37jTEe2-fill" x1="0.853554" y1="0.146446" x2="0.146446" y2="0.853554" spreadMethod="pad" gradientUnits="objectBoundingBox" gradientTransform="translate(0 0)">
            <stop id="eCnIB37jTEe2-fill-0" offset="0%" stop-color="#9799ff"/>
            <stop id="eCnIB37jTEe2-fill-1" offset="100%" stop-color="#8bdef8"/>
        </linearGradient>
        <linearGradient id="eCnIB37jTEe4-fill" x1="0.5" y1="0" x2="0.5" y2="1" spreadMethod="pad" gradientUnits="objectBoundingBox" gradientTransform="translate(0 0)">
            <stop id="eCnIB37jTEe4-fill-0" offset="0%" stop-color="#9799ff"/>
            <stop id="eCnIB37jTEe4-fill-1" offset="100%" stop-color="#8bdef8"/>
        </linearGradient>
    </defs>
    <ellipse rx="19" ry="19" transform="translate(19 19.002481)" fill="url(#eCnIB37jTEe2-fill)" stroke-width="0"/>
    <ellipse id="eCnIB37jTEe3" rx="19" ry="19" transform="translate(19.000001 19.002482)" fill="#fff" stroke-width="0"/>
    <path id="eCnIB37jTEe4" d="M253.71917,169.57567c0-5.18306,2.4645-9.79051,6.28558-12.71442-2.06104,2.69344-3.28558,6.06093-3.28558,9.71442c0,8.83656,7.16344,16,16,16c3.65349,0,7.02098-1.22454,9.71442-3.28558-2.92391,3.82108-7.53136,6.28558-12.71442,6.28558-8.83656,0-16-7.16344-16-16Z" transform="translate(-250.719172-150.573191)" fill="url(#eCnIB37jTEe4-fill)" stroke-width="0"/>
    <polygon id="eCnIB37jTEe5" points="-11.153599,-16.343168 -8.153599,-10.343168 -14.153599,-10.343168 -11.153599,-16.343168" transform="matrix(0 0 0 0 19 19.002481)" opacity="0" fill="#fff" stroke-width="0"/>
    <polygon id="eCnIB37jTEe6" points="-11.153599,-16.343168 -8.153599,-10.343168 -14.153599,-10.343168 -11.153599,-16.343168" transform="matrix(0 0 0 0 19 19.002481)" opacity="0" fill="#fff" stroke-width="0"/>
    <polygon id="eCnIB37jTEe7" points="-11.153599,-16.343168 -8.153599,-10.343168 -14.153599,-10.343168 -11.153599,-16.343168" transform="matrix(0 0 0 0 19 19.002481)" opacity="0" fill="#fff" stroke-width="0"/>
    <polygon id="eCnIB37jTEe8" points="-11.153599,-16.343168 -8.153599,-10.343168 -14.153599,-10.343168 -11.153599,-16.343168" transform="matrix(0 0 0 0 19 19.002481)" opacity="0" fill="#fff" stroke-width="0"/>
    <polygon id="eCnIB37jTEe9" points="-11.153599,-16.343168 -8.153599,-10.343168 -14.153599,-10.343168 -11.153599,-16.343168" transform="matrix(0 0 0 0 19 19.002481)" opacity="0" fill="#fff" stroke-width="0"/>
    <polygon id="eCnIB37jTEe10" points="-11.153599,-16.343168 -8.153599,-10.343168 -14.153599,-10.343168 -11.153599,-16.343168" transform="matrix(0 0 0 0 19 19.002481)" opacity="0" fill="#fff" stroke-width="0"/>
    <polygon id="eCnIB37jTEe11" points="-11.153599,-16.343168 -8.153599,-10.343168 -14.153599,-10.343168 -11.153599,-16.343168" transform="matrix(0 0 0 0 19 19.002481)" opacity="0" fill="#fff" stroke-width="0"/>
    <polygon id="eCnIB37jTEe12" points="-11.153599,-16.343168 -8.153599,-10.343168 -14.153599,-10.343168 -11.153599,-16.343168" transform="matrix(0 0 0 0 19 19.002481)" opacity="0" fill="#fff" stroke-width="0"/>
</svg>