<svg width="59" height="87" viewBox="0 0 59 87" fill="none" xmlns="http://www.w3.org/2000/svg">
<path opacity="0.8" fill-rule="evenodd" clip-rule="evenodd" d="M16.9037 0.307007H42.6433C51.5165 0.307007 58.7397 7.86422 58.7397 16.9369C58.7397 22.2408 56.2685 27.0316 52.4405 30.0901C56.2685 33.1524 58.7397 37.9394 58.7397 43.2472C58.7397 52.3159 51.5165 59.8731 42.6433 59.8731C39.028 59.8731 35.6878 58.6221 33.0001 56.5227V69.5535C33.0001 78.6262 25.7806 86.1834 16.9037 86.1834C8.03048 86.1834 0.807251 78.6262 0.807251 69.5535C0.807251 64.2496 3.2785 59.4627 7.10645 56.4003C3.2785 53.338 0.807251 48.5511 0.807251 43.2472C0.807251 37.9394 3.2785 33.1524 7.10645 30.0901C3.2785 27.0316 0.807251 22.2408 0.807251 16.9369C0.807251 7.86422 8.03048 0.307007 16.9037 0.307007ZM26.5468 59.8731H16.9037C11.6604 59.8731 7.26047 64.1944 7.26047 69.5535C7.26047 74.9166 11.6604 79.2339 16.9037 79.2339C22.1506 79.2339 26.5468 74.9166 26.5468 69.5535V59.8731ZM33.0001 43.2472C33.0001 37.8842 37.3964 33.5629 42.6433 33.5629C47.8865 33.5629 52.2865 37.8842 52.2865 43.2472C52.2865 48.6064 47.8865 52.9275 42.6433 52.9275C37.3964 52.9275 33.0001 48.6064 33.0001 43.2472ZM16.7827 33.5668C11.5907 33.63 7.26047 37.9276 7.26047 43.2472C7.26047 48.6064 11.6604 52.9275 16.9037 52.9275H26.5468V33.5629H16.9037L16.7827 33.5668ZM26.5468 26.6173V7.25647H16.9037C11.6604 7.25647 7.26047 11.5738 7.26047 16.9369C7.26047 22.2999 11.6604 26.6173 16.9037 26.6173H26.5468ZM33.0001 26.6173H42.6433C47.8865 26.6173 52.2865 22.2999 52.2865 16.9369C52.2865 11.5738 47.8865 7.25647 42.6433 7.25647H33.0001V26.6173Z" fill="white"/>
</svg>
