<svg width="125" height="108" viewBox="0 0 125 108" fill="none" xmlns="http://www.w3.org/2000/svg">
<g opacity="0.8">
<path d="M60.419 58.5506H46.0151L53.0466 37.5079H53.1292C53.5942 39.0905 60.0729 57.8683 60.419 58.5506Z" fill="white"/>
<path fill-rule="evenodd" clip-rule="evenodd" d="M21.7331 0.072876H102.329C114.313 0.072876 124.028 8.79996 124.028 19.5654V88.2532C124.028 99.0186 114.313 107.746 102.329 107.746H21.7331C9.74911 107.746 0.0341797 99.0186 0.0341797 88.2532V19.5654C0.0341797 8.79996 9.74911 0.072876 21.7331 0.072876ZM43.9485 66.9045H62.4391L67.4712 79.4354C67.5474 79.582 67.671 79.7046 67.8257 79.7874C67.9805 79.8701 68.1594 79.9092 68.3391 79.8995H78.0571C78.5221 79.8995 78.6668 79.6768 78.4911 79.2127L59.7474 30.1564C59.6906 29.9058 59.4891 29.7758 59.1378 29.7758H46.9864C46.9163 29.7674 46.845 29.7737 46.7781 29.794C46.7112 29.8144 46.6503 29.8483 46.6004 29.8932C46.5504 29.9381 46.5126 29.9927 46.4899 30.0529C46.4673 30.113 46.4604 30.177 46.4697 30.24C46.484 31.6654 46.2505 33.0841 45.7774 34.4448L29.0279 79.1338C28.8523 79.6443 29.0538 79.8995 29.6324 79.8995H38.312C38.8321 79.8995 39.1197 79.6953 39.1748 79.2869L43.9485 66.9045ZM86.4577 38.7177C87.2217 38.9736 88.0351 39.0893 88.8498 39.058C89.679 39.0937 90.5078 38.9804 91.2876 38.7246C92.0675 38.4687 92.7826 38.0756 93.391 37.5682C93.9714 37.0382 94.4226 36.4055 94.7161 35.7104C95.0096 35.0153 95.139 34.2729 95.0959 33.5305C95.1357 32.7856 95.0095 32.041 94.7247 31.3405C94.44 30.6399 94.0023 29.9976 93.4375 29.451C92.8475 28.9296 92.1432 28.5243 91.3694 28.2606C90.5956 27.9969 89.7692 27.8807 88.9427 27.9194C88.1178 27.893 87.2952 28.0149 86.5234 28.2779C85.7515 28.5409 85.0459 28.9397 84.448 29.451C83.8575 29.9849 83.3969 30.6233 83.0954 31.3255C82.7939 32.0278 82.6581 32.7786 82.6966 33.5305C82.6535 34.2729 82.7829 35.0153 83.0764 35.7104C83.3699 36.4055 83.8211 37.0382 84.4015 37.5682C84.9945 38.071 85.6937 38.4618 86.4577 38.7177ZM83.7298 43.3928V79.2034C83.7153 79.2979 83.7253 79.3941 83.759 79.4845C83.7928 79.575 83.8495 79.6572 83.9246 79.7246C83.9997 79.7921 84.0911 79.843 84.1918 79.8733C84.2925 79.9037 84.3996 79.9126 84.5048 79.8995H93.3704C93.4645 79.9121 93.5606 79.9046 93.6509 79.8778C93.7413 79.8509 93.8234 79.8055 93.8907 79.745C93.958 79.6846 94.0085 79.6108 94.0384 79.5297C94.0683 79.4485 94.0766 79.3622 94.0627 79.2776V43.3928C94.0755 43.3084 94.0664 43.2225 94.0361 43.1418C94.0059 43.0611 93.9553 42.9878 93.8882 42.9276C93.8212 42.8674 93.7396 42.8219 93.6497 42.7947C93.5599 42.7675 93.4643 42.7594 93.3704 42.7709H84.4221C84.328 42.7584 84.2319 42.7658 84.1416 42.7927C84.0512 42.8195 83.9691 42.8649 83.9018 42.9254C83.8345 42.9858 83.7839 43.0596 83.7541 43.1407C83.7242 43.2219 83.7159 43.3082 83.7298 43.3928Z" fill="white"/>
</g>
</svg>
