<svg width="93" height="87" viewBox="0 0 93 87" fill="none" xmlns="http://www.w3.org/2000/svg">
<g opacity="0.8">
<path fill-rule="evenodd" clip-rule="evenodd" d="M54.0676 0.361555C58.3214 0.101462 61.3781 5.03916 62.6601 8.35445C63.3907 10.2397 64.0017 13.3138 62.2402 14.246C60.8638 14.9759 59.2166 15.0894 57.2682 15.3637C52.6164 16.014 49.6588 14.8199 47.9759 11.7932C47.4931 10.9261 46.9881 9.39762 47.2879 7.87982C47.8744 4.88519 49.5956 2.49931 51.7485 1.15023C52.1497 0.897011 53.156 0.417544 54.0676 0.361555Z" fill="white"/>
<path d="M41.0332 18.3939C43.5252 18.3983 46.1299 18.8324 48.5572 19.5259C51.213 20.2874 53.7098 21.2939 55.8026 22.191C59.8119 23.9114 62.7508 25.1671 62.7508 25.1671C62.7508 25.1671 64.7754 23.663 65.5471 23.1036C67.4158 21.8665 69.1551 20.6203 71.4585 20.0807C72.2035 19.9069 73.5913 19.8998 74.2857 20.0324C77.013 20.5543 78.6684 21.8311 78.8992 24.3193C79.2121 27.6634 75.2413 31.2029 74.3075 32.146C73.472 32.9879 69.4682 37.055 64.5442 37.4797C62.148 37.6882 59.8826 36.8397 58.2527 36.1034C57.7087 35.8568 56.2918 35.0977 56.2918 35.0977C56.2918 35.0977 54.1033 37.338 52.0948 39.6004C50.0765 41.8723 45.077 48.4502 45.077 48.4632C50.5948 48.0367 56.9319 49.9301 60.9505 51.5986C70.4011 55.5239 79.52 62.4311 85.6817 71.7726C87.797 74.984 89.8145 78.5273 91.342 82.3295C91.7606 83.3739 92.5863 85.5865 91.851 86.5307C91.0885 87.5072 89.332 86.3482 88.3425 85.8298C86.5429 84.8907 82.7085 81.7396 79.9374 79.3499C78.6706 78.2553 76.7136 76.3646 76.3726 74.6949C76.156 73.6258 76.7588 72.2286 76.9668 71.133C77.3012 69.3811 76.3511 68.0277 75.6936 67.1469C74.1506 65.0776 71.5047 63.7853 69.0157 62.7362C64.0749 60.6476 60.6113 59.9806 52.2354 58.8404C43.8606 57.7008 38.2548 58.4185 37.6342 58.4447C36.9888 59.269 36.1591 60.33 35.5133 61.1543C33.7314 63.1404 27.1018 70.1799 25.1846 71.7423C21.7553 74.5361 17.924 77.2457 13.8669 79.3499C6.05751 83.3981 1.07648 82.7586 0.509668 82.0877C-0.0554821 81.4179 -0.0772575 79.511 1.11197 76.8909C2.31209 74.2493 5.16577 70.8233 6.48161 69.3696C7.79509 67.9127 10.2367 65.5033 13.555 62.7965C18.1396 59.0537 25.1126 55.2864 28.5802 53.4558C33.4178 50.8989 38.2595 49.6713 39.4747 49.3173C46.1254 39.4882 53.1695 33.2505 53.1695 33.2505C53.1695 33.2505 50.344 31.3077 49.1512 30.4511C46.5552 28.5872 43.9974 26.5912 41.0024 25.1864C39.1167 24.3033 36.0015 23.055 33.3052 23.789C29.9869 24.6904 25.6184 27.3692 23.865 29.682C23.2813 30.4503 22.787 31.8554 22.5917 33.0513C22.4357 33.9952 22.6771 35.3713 22.4402 36.0487C22.0242 37.2367 20.2225 38.2883 18.8193 38.9499C16.9125 39.8473 14.9539 40.7739 12.7813 41.3659C12.0489 41.5641 10.7576 41.9387 10.3584 41.3562C9.8285 40.5825 10.6535 39.4225 10.9339 38.8894C12.0739 36.7137 13.4428 34.8885 14.8853 33.0375C19.2815 27.3982 24.0673 23.1952 30.7876 20.3182C32.4743 19.5964 35.7125 18.3858 41.0332 18.3939ZM73.8699 23.2876C72.7249 23.4034 71.4682 23.6335 70.4342 24.0674C68.9073 24.7057 67.5488 25.4796 66.1488 26.3889C69.2372 27.3977 72.7895 27.9708 75.5805 26.1537C76.2595 25.7104 76.8715 25.1126 76.9008 24.4025C76.9354 23.6022 75.0132 23.1728 73.8699 23.2876ZM32.0795 59.1756C32.0795 59.1756 30.5327 59.48 29.7018 59.6617C28.8723 59.8449 26.9562 60.4341 25.6721 60.7932C22.1581 61.7732 12.9446 65.6186 8.80114 70.0687C7.44909 71.5204 6.38765 73.2519 5.60028 75.3146C5.38421 75.8806 4.94591 77.193 5.38633 77.9817C5.76145 78.6526 6.87494 78.8004 7.82964 78.5754C9.79063 78.1135 11.5583 77.2452 13.1316 76.3132C19.0441 72.8058 24.7226 67.7131 28.2503 63.6181C29.3927 62.2911 30.8553 60.6547 31.2687 60.16C31.6829 59.6617 32.0795 59.1756 32.0795 59.1756Z" fill="white"/>
</g>
</svg>
