<svg width="125" height="109" viewBox="0 0 125 109" fill="none" xmlns="http://www.w3.org/2000/svg">
<g opacity="0.8">
<path d="M47.3268 55.9438H34.2041C34.9791 54.0112 35.8057 51.8486 36.4773 49.5019C36.9891 48.0775 37.481 46.6531 37.9655 45.2506C38.2635 44.3877 38.5587 43.5331 38.8539 42.6918C39.5772 40.7132 40.1455 38.7346 40.6104 36.756H40.7138C40.9154 37.3716 41.117 38.0157 41.3275 38.6885C41.4947 39.2227 41.6675 39.7749 41.8504 40.3451C42.2637 41.6795 42.7287 43.0139 43.2453 44.4403C43.5036 45.1535 43.749 45.8553 43.9944 46.557C44.2398 47.2587 44.4852 47.9604 44.7436 48.6736C45.2085 50.054 45.6735 51.3884 46.1385 52.6308C46.6035 53.8272 47.0168 54.9775 47.3268 55.9438Z" fill="white"/>
<path d="M91.9645 54.1493H81.0634C81.2184 52.9989 81.58 51.8946 82.2 50.8363C83.5433 48.5356 86.2298 47.2012 89.0713 47.3392C92.1195 47.2472 94.8577 48.9957 95.7877 51.5725C95.9943 52.1247 96.0976 52.6768 96.0976 53.275V53.7352C95.736 53.9652 95.3227 54.0573 94.9094 54.1033C94.2894 54.1493 93.3078 54.1493 91.9645 54.1493Z" fill="white"/>
<path fill-rule="evenodd" clip-rule="evenodd" d="M102.659 0.681396H22.5797C10.4386 0.681396 0.622437 9.42406 0.622437 20.2374V88.7983C0.622437 99.6116 10.4386 108.354 22.5797 108.354H102.659C114.8 108.354 124.616 99.6116 124.616 88.7983V20.2374C124.616 9.42406 114.8 0.681396 102.659 0.681396ZM31.2076 65.1006H50.4266L54.6631 76.144C54.7664 76.4661 55.128 76.6962 55.4897 76.6502H66.2875C66.8041 76.6502 66.9591 76.4201 66.8041 75.9139L47.9467 28.7495C47.8951 28.5195 47.6368 28.3814 47.2751 28.3814H33.8941C33.6358 28.4274 33.4291 28.6575 33.4808 28.8876C33.4808 29.8999 33.3775 30.9122 33.1708 31.8785C32.9642 32.4307 32.8092 32.8448 32.6542 33.3049L16.0184 75.7759C15.8634 76.3281 16.0184 76.6041 16.5867 76.6041H26.2995C26.7645 76.6502 27.1778 76.3741 27.2811 75.96L31.2076 65.1006ZM81.0634 60.8673H97.4409C98.1331 60.8673 98.7979 60.9162 99.4423 60.9636C100.048 61.0082 100.636 61.0514 101.212 61.0514C102.401 61.0514 103.382 61.0054 104.209 60.9134C104.499 60.8972 104.757 60.8811 104.984 60.8669C105.403 60.8407 105.713 60.8213 105.914 60.8213C106.275 60.8213 106.585 60.5452 106.637 60.2231C106.66 60.0387 106.683 59.8087 106.711 59.5331C106.745 59.1897 106.786 58.7755 106.844 58.2906C106.895 57.4163 106.947 56.45 106.947 55.3457C106.947 53.4591 106.637 51.5725 105.965 49.7319C105.294 47.7993 104.209 46.0508 102.866 44.4863C101.419 42.8758 99.5591 41.6335 97.4409 40.8052C94.9094 39.7929 92.1712 39.3328 89.433 39.3788C86.1265 39.3788 83.2333 39.7469 80.8051 40.8052C78.3769 41.8635 76.2586 43.336 74.5537 45.1765C72.7972 47.0631 71.5056 49.1798 70.6789 51.4805C69.8006 53.8732 69.3873 56.312 69.3873 58.7967C69.3873 61.0974 69.749 63.3521 70.4723 65.5148C71.1956 67.7234 72.3838 69.7481 74.0371 71.5426C75.7937 73.4292 78.0152 74.9476 80.5468 75.9139C83.2333 76.9723 86.5398 77.5244 90.4663 77.5244C92.9461 77.5704 95.3744 77.3864 97.8026 76.9723C99.6108 76.6962 101.316 76.236 102.969 75.5918C103.124 75.4998 103.227 75.4078 103.331 75.2697C103.382 75.0857 103.434 74.9016 103.434 74.7176V67.6774C103.434 67.2173 103.279 67.1253 103.021 67.3093C101.574 67.8155 100.024 68.1836 98.4225 68.3676C96.666 68.6897 94.8577 68.8278 93.0495 68.8738C90.7762 68.9198 88.503 68.5057 86.4365 67.7234C84.8865 67.1713 83.5949 66.205 82.665 64.9626C81.7867 63.7202 81.2701 62.2938 81.0634 60.8673Z" fill="white"/>
</g>
</svg>
