<svg width="124" height="87" viewBox="0 0 124 87" fill="none" xmlns="http://www.w3.org/2000/svg">
<g opacity="0.8">
<path d="M81.4496 36.4414C81.4034 36.4414 81.3675 36.4414 81.3214 36.4414C77.0387 36.4414 73.1203 37.7687 70.0994 39.96C67.0631 42.1869 65.0525 45.3313 64.8166 48.8943H64.8217C64.5909 52.5554 66.2835 55.9492 69.2582 58.4745C72.3868 61.0666 76.6182 62.6567 81.2803 62.6567C81.3368 62.6567 81.3932 62.6567 81.4445 62.6567C81.4445 62.6567 81.4496 62.6567 81.4547 62.6567C81.5111 62.6567 81.5676 62.6567 81.624 62.6567C86.2861 62.6567 90.5175 61.0666 93.6307 58.479C96.6055 55.9536 98.298 52.5554 98.0672 48.8899C97.8364 45.3313 95.831 42.1869 92.7947 39.96C89.8148 37.7776 85.8092 36.4414 81.4496 36.4414Z" fill="white"/>
<path d="M113.946 74.5078C117.542 71.0918 120.342 66.9809 122.035 62.4425L122.111 62.2064C123.153 59.4273 123.753 56.2295 123.753 52.9114C123.753 51.3926 123.614 49.9006 123.378 48.4398C122.599 43.8613 120.793 39.7504 118.173 36.1295C115.588 32.5798 112.438 29.5646 108.776 27.1016L108.684 27.0437H108.694L70.1353 1.33645C67.6119 -0.347082 63.3703 -0.338174 60.5956 1.34536C57.7901 3.04671 57.4721 5.86596 59.9648 7.64748L59.9596 7.65193L75.9925 18.9779L27.0476 19.0225C23.006 19.0269 19.1234 21.3295 18.3541 24.2423C17.5642 27.2041 20.3031 29.6626 24.5088 29.6759V29.6848L49.2813 29.6403L4.8959 59.2224C0.726112 61.9927 -0.617657 66.6068 2.00833 69.524C4.67535 72.4947 10.3428 72.4992 14.5587 69.5418L38.685 52.3992C38.685 52.3992 38.3311 54.7152 38.3619 56.1003L38.3516 56.0958C38.3824 57.4943 38.8953 60.2022 39.6646 62.3222C41.4341 67.0922 44.2293 71.1942 47.8606 74.6236C51.7791 78.3514 56.5284 81.3533 61.8624 83.4199L62.1291 83.5134C67.576 85.6512 73.941 86.8983 80.6393 86.8983C80.7265 86.8983 80.8137 86.8983 80.9009 86.8983C80.906 86.8983 80.9111 86.8983 80.9163 86.8983C80.9368 86.8983 80.9624 86.8983 80.9932 86.8983C87.6608 86.8983 93.9898 85.6557 99.7085 83.4377C105.294 81.2509 110.033 78.2401 113.916 74.539L113.946 74.5078ZM105.653 56.6437C104.432 59.454 102.637 61.8546 100.365 63.8454L100.355 63.8499C95.3797 68.2502 88.4249 70.7444 80.8906 70.7533C73.3512 70.7711 66.3913 68.2948 61.4162 63.9033C59.1287 61.908 57.3234 59.4985 56.154 56.8174L56.1027 56.6793C55.2821 54.7597 54.8102 52.5417 54.8102 50.2302C54.8102 46.8809 55.8104 43.7366 57.5542 40.9975C59.1082 38.6013 61.0777 36.5793 63.4165 34.9314L63.4627 34.9002C68.2941 31.4797 74.4436 29.6314 80.8804 29.6225C87.3171 29.6136 93.4718 31.4485 98.3083 34.8557C100.77 36.5971 102.77 38.6592 104.217 40.944C105.648 43.1353 106.602 45.7185 106.889 48.4665L106.894 48.5377C106.945 49.0232 106.976 49.5888 106.976 50.1589C106.981 52.4393 106.509 54.6172 105.653 56.6437Z" fill="white"/>
</g>
</svg>
