<svg width="125" height="108" viewBox="0 0 125 108" fill="none" xmlns="http://www.w3.org/2000/svg">
<g opacity="0.8">
<path d="M36.9707 53.5119V35.2354C36.9132 35.0199 37.1764 35.0205 37.6776 35.0217C37.7161 35.0218 37.756 35.0219 37.7974 35.0219C38.376 35.0219 39.12 35.0219 40.0292 34.9848C40.9385 34.9476 41.8633 34.9476 42.7984 34.9476C46.6009 34.9353 49.5079 35.7211 51.5193 37.3053C53.5308 38.8894 54.5365 41.1419 54.5365 44.0627C54.5331 47.3857 53.3896 49.7774 51.106 51.2378C48.8225 52.6982 45.8328 53.4284 42.1371 53.4284C39.3266 53.4284 36.9707 53.5119 36.9707 53.5119Z" fill="white"/>
<path fill-rule="evenodd" clip-rule="evenodd" d="M22.5048 0.139526H103.101C115.085 0.139526 124.8 8.86661 124.8 19.632V88.3199C124.8 99.0853 115.085 107.812 103.101 107.812H22.5048C10.5208 107.812 0.805908 99.0853 0.805908 88.3199V19.632C0.805908 8.86661 10.5208 0.139526 22.5048 0.139526ZM26.6379 28.9142V79.4462C26.6379 79.7943 26.8601 79.966 27.2992 79.966H36.3094C36.3993 79.9777 36.4909 79.9703 36.5771 79.9446C36.6633 79.9189 36.7415 79.8755 36.8057 79.8178C36.8699 79.7601 36.9183 79.6898 36.9469 79.6124C36.9756 79.535 36.9837 79.4527 36.9707 79.3719V60.4735L41.6205 60.3993C48.3024 60.3962 53.8477 59.0348 58.2563 56.3151C62.665 53.5954 64.8693 49.437 64.8693 43.8399C64.9183 41.716 64.4689 39.6067 63.5502 37.6492C62.6316 35.6917 61.2644 33.93 59.5376 32.4786C55.9831 29.4108 50.4034 27.986 42.7984 27.986C38.506 27.986 34.8799 28.1238 31.6991 28.2447C30.102 28.3054 28.6171 28.3619 27.2166 28.3944C27.1382 28.3853 27.0585 28.3925 26.9837 28.4154C26.9088 28.4383 26.8409 28.4763 26.785 28.5265C26.7291 28.5768 26.6868 28.6378 26.6613 28.705C26.6358 28.7722 26.6278 28.8438 26.6379 28.9142ZM94.8345 76.2531C94.8345 76.2531 98.9676 73.5845 98.9676 67.8992C98.9676 65.2585 97.18 63.0679 95.253 61.476L95.2065 61.4342C93.3328 59.7603 90.2329 58.1638 85.9069 56.6446C83.4271 55.7443 81.8014 54.9553 81.0299 54.2777C80.6638 53.9765 80.3718 53.61 80.1725 53.2016C79.9732 52.7933 79.871 52.352 79.8726 51.9061C79.8817 51.4504 80.0099 51.0029 80.2468 50.5999C80.4837 50.1968 80.8227 49.8494 81.2365 49.5856C82.1458 48.9358 83.5614 48.6063 85.4936 48.6063C88.9324 48.6277 92.291 49.5416 95.1651 51.2378C95.6611 51.5255 95.9091 51.377 95.9091 50.7737V44.5314C95.9091 44.0209 95.7696 43.7053 95.4958 43.5568C93.0848 42.4522 89.6405 41.8999 85.163 41.8999C80.3651 41.8999 76.6729 42.9535 74.0862 45.0605C72.8153 46.0548 71.7962 47.2821 71.0975 48.6599C70.3988 50.0376 70.0368 51.5338 70.0357 53.0478C69.9934 55.4814 70.992 57.8369 72.8256 59.6288C74.5581 61.4172 77.6304 63.0849 82.0425 64.6319C84.4672 65.4828 86.0929 66.2733 86.9195 67.0035C87.3213 67.3465 87.639 67.761 87.8525 68.2204C88.066 68.6799 88.1706 69.1743 88.1595 69.6721C88.1584 70.1653 88.0151 70.6499 87.7434 71.0786C87.4718 71.5072 87.0812 71.8653 86.6096 72.118C85.5866 72.7368 84.1125 73.0462 82.1871 73.0462C78.0175 73.0198 73.9757 71.7497 70.697 69.4354C70.6512 69.3889 70.5877 69.3594 70.519 69.3525C70.4503 69.3456 70.3812 69.362 70.3251 69.3983C70.2542 69.4455 70.198 69.5083 70.1618 69.5806C70.1257 69.6529 70.1107 69.7324 70.1184 69.8113V76.8054C70.0941 76.9657 70.1323 77.1286 70.2264 77.2665C70.3206 77.4044 70.465 77.5088 70.635 77.5619C73.7108 79.1646 77.6717 79.966 82.5178 79.966C87.3639 79.966 91.2094 78.9264 94.0544 76.8472C94.3178 76.6476 94.5865 76.4434 94.8345 76.2253V76.2531Z" fill="white"/>
</g>
</svg>
