<svg width="223" height="57" viewBox="0 0 223 57" fill="none" xmlns="http://www.w3.org/2000/svg">
<mask id="mask0_240_100" style="mask-type:alpha" maskUnits="userSpaceOnUse" x="0" y="0" width="223" height="57">
<path d="M13.7773 36.5421L0 53.5919L2.7545 57L16.5366 39.9502L13.7773 36.5421Z" fill="#231F20"/>
<path d="M19.2912 43.363L22.0457 46.7711L13.7774 57L10.9941 53.5588L19.2912 43.363Z" fill="#C72259"/>
<path d="M30.3138 50.1792L33.0683 46.7711L15.0152 24.4198L12.2559 27.8279L30.3138 50.1792Z" fill="#231F20"/>
<path d="M27.5594 26.3131L24.8001 29.7212L13.7773 16.0795L16.5366 12.6714L27.5594 26.3131Z" fill="#C72259"/>
<path d="M27.5596 19.4923L30.3141 22.9004L46.0685 3.40808L43.314 0L27.5596 19.4923Z" fill="#231F20"/>
<path d="M27.5596 33.1292L30.3141 36.542L46.0685 17.0498L43.314 13.637L27.5596 33.1292Z" fill="#C72259"/>
<path d="M67.3896 37.9149C65.2541 44.1914 64.6735 45.015 60.7289 45.015C60.1146 45.015 59.342 44.9819 58.6942 44.9487V41.3797C58.9831 41.4241 59.2752 41.4446 59.5676 41.4413C61.2136 41.4413 62.1205 41.2188 62.5428 38.8899L56.2036 21.2295H61.252L64.9374 33.7258H65.0046L68.5269 21.2295H73.3257L67.3896 37.9149Z" fill="#C72259"/>
<path d="M85.7255 37.9149C83.59 44.1914 83.0094 45.015 79.0648 45.015C78.4505 45.015 77.6779 44.9819 77.0301 44.9487V41.3797C77.319 41.4242 77.6111 41.4448 77.9035 41.4413C79.5495 41.4413 80.4564 41.2188 80.8739 38.8899L74.5396 21.2295H79.5831L83.2685 33.7258H83.3261L86.8532 21.2295H91.652L85.7255 37.9149Z" fill="#C72259"/>
<path d="M103.86 38.1987H99.1096L92.9336 21.2389H97.9771L101.533 33.7351H101.595L105.247 21.2389H110.065L103.86 38.1987Z" fill="#231F20"/>
<path d="M126.515 33.2382C125.321 37.3231 121.894 38.658 118.953 38.658C114.106 38.658 110.387 36.3622 110.387 29.3804C110.387 27.3403 111.097 20.8035 118.631 20.8035C122.024 20.8035 126.712 22.3986 126.712 30.1472V30.9425H114.893C115.022 32.2205 115.281 35.089 118.933 35.089C120.195 35.089 121.486 34.4499 121.841 33.2382H126.515ZM122.057 28.0314C121.798 25.2908 120.018 24.4624 118.564 24.4624C116.433 24.4624 115.301 25.802 115.042 28.0314H122.057Z" fill="#231F20"/>
<path d="M145.005 38.1989H140.48V27.8989C140.48 26.6587 140.417 24.5523 137.538 24.5523C135.537 24.5523 133.982 25.8919 133.982 28.4763V38.1989H129.457V21.2389H133.776V23.724H133.838C134.327 22.7994 135.074 22.0319 135.991 21.512C136.907 20.9921 137.955 20.7413 139.011 20.7892C142.371 20.7892 144.991 22.7347 144.991 26.4694L145.005 38.1989Z" fill="#231F20"/>
<path d="M153.748 21.2389H156.561V24.4245H153.748V33.6405C153.748 34.6297 153.782 35.0132 155.625 35.0132C155.946 35.0074 156.266 34.9852 156.585 34.9469V38.3265C155.874 38.3597 155.145 38.3928 154.454 38.3928H153.868C149.957 38.3928 149.242 36.9255 149.242 34.7244V24.4245H146.915V21.2389H149.242V16.6711H153.768L153.748 21.2389Z" fill="#231F20"/>
<path d="M174.455 38.1988H170.136V35.8084H170.074C169.037 37.626 167.228 38.6484 164.838 38.6484C161.441 38.6484 158.984 36.7551 158.984 32.4003V21.2389H163.514V31.7613C163.514 34.3742 165.064 34.8854 166.451 34.8854C167.938 34.8854 169.944 34.0523 169.944 31.0276V21.2389H174.47L174.455 38.1988Z" fill="#231F20"/>
<path d="M178.175 21.239H182.494V24.169H182.561C183.52 22.4507 184.528 20.7893 187.278 20.7893C187.57 20.7949 187.862 20.817 188.151 20.8556V25.3807C187.722 25.3287 187.288 25.3082 186.856 25.3192C183.333 25.3192 182.69 27.4871 182.69 29.3663V38.1989H178.165L178.175 21.239Z" fill="#231F20"/>
<path d="M205.389 33.2382C204.194 37.3231 200.767 38.658 197.826 38.658C192.979 38.658 189.26 36.3622 189.26 29.3804C189.26 27.3403 189.97 20.8035 197.504 20.8035C200.897 20.8035 205.585 22.3986 205.585 30.1472V30.9425H193.785C193.915 32.2205 194.174 35.089 197.826 35.089C199.088 35.089 200.379 34.4499 200.734 33.2382H205.389ZM200.931 28.0314C200.671 25.2908 198.896 24.4624 197.437 24.4624C195.306 24.4624 194.174 25.802 193.915 28.0314H200.931Z" fill="#231F20"/>
<path d="M218.057 26.4031C217.861 25.3192 217.472 24.1689 215.015 24.1689C212.558 24.1689 212.236 25.1156 212.236 25.8304C212.236 28.5048 223 26.5641 223 32.8122C223 37.7539 218.153 38.6438 215.471 38.6438C211.56 38.6438 207.313 37.3042 207.193 32.7791H211.848C211.848 34.1991 212.755 35.2641 215.6 35.2641C217.928 35.2641 218.48 34.1518 218.48 33.5127C218.48 30.6727 207.812 32.8122 207.812 26.4647C207.812 23.9796 209.396 20.7845 214.761 20.7845C218.12 20.7845 222.132 21.6176 222.487 26.3984L218.057 26.4031Z" fill="#231F20"/>
</mask>
<g mask="url(#mask0_240_100)">
<rect x="-633" y="-65" width="936" height="122" fill="#AEAEAE"/>
</g>
</svg>
