<svg width="85" height="85" viewBox="0 0 85 85" fill="none" xmlns="http://www.w3.org/2000/svg">
<path d="M85 80.718L65.5247 61.1931V13.704C65.523 11.2855 64.2364 9.04974 62.1457 7.8316C60.055 6.61346 57.4751 6.5957 55.3685 7.78592L31.1 21.5018H25.7489L4.23465 0L0 4.29305L17.1696 21.5018H14.136C12.3221 21.4883 10.5785 22.1998 9.29118 23.4771C8.00377 24.7544 7.28009 26.492 7.28009 28.3048V57.0226C7.28009 58.827 7.99786 60.5569 9.27425 61.8335C10.5507 63.1091 12.2825 63.8256 14.0879 63.8256H31.0273L55.2959 77.5416C56.6849 78.3494 58.3152 78.6396 59.8978 78.3613C61.4806 78.0821 62.9136 77.2531 63.9437 76.0205C64.973 74.7871 65.5333 73.2297 65.5249 71.6233V69.7682L80.7046 85L85 80.718Z" fill="#F09C9C"/>
</svg>
