<svg width="98" height="72" viewBox="0 0 98 72" fill="none" xmlns="http://www.w3.org/2000/svg">
<path d="M48.0571 0.888372L23.7462 14.6388H6.8208C5.01142 14.6388 3.27711 15.3577 1.99802 16.6369C0.718878 17.916 0 19.6503 0 21.4596V50.2776C0 52.087 0.718878 53.8213 1.99802 55.1004C3.27716 56.3796 5.01147 57.0984 6.8208 57.0984H23.7462L48.0571 70.8489C50.1668 72.0474 52.7552 72.0323 54.8506 70.8104C56.9463 69.5876 58.2338 67.3417 58.2283 64.9149V6.82247C58.2339 4.39546 56.9464 2.14984 54.8506 0.926967C52.755 -0.294921 50.1667 -0.309936 48.0571 0.88849V0.888372Z" fill="#C4C4C4"/>
<path d="M82.043 66.9567C82.043 66.9719 82.0238 66.9785 82.0145 66.9665L78.9662 63.0673C78.3773 62.314 78.5165 61.2287 79.2402 60.6038C86.4211 54.4026 90.5755 45.3585 90.5576 35.8147C90.541 26.8218 86.8243 18.2873 80.3709 12.1651C79.0166 10.8803 78.7226 8.77119 79.857 7.28859V7.28859C80.9963 5.7996 83.1399 5.5094 84.521 6.7773C89.5881 11.4291 93.3655 17.3413 95.4501 23.9384C97.8771 31.6189 97.893 39.8578 95.4961 47.5478C93.1 55.2352 88.4069 62.0043 82.0492 66.9441C82.0453 66.9472 82.043 66.9518 82.043 66.9567V66.9567Z" fill="#C4C4C4"/>
<path d="M82.4616 37H75.7212C75.7453 36.5892 75.7563 36.1761 75.754 35.7611C75.7219 30.0407 73.1532 24.6945 68.8492 21.0977C67.4213 19.9045 66.8414 17.864 67.7718 16.2526C68.699 14.647 70.7675 14.0782 72.2432 15.2006C78.6081 20.0417 82.4421 27.6042 82.4858 35.7256C82.4881 36.1519 82.48 36.5768 82.4616 37Z" fill="#C4C4C4"/>
<path d="M68.8492 50.4933C72.8583 47.143 75.3617 42.2747 75.7119 37H82.4549C82.0783 44.6876 78.3107 51.7756 72.2432 56.3904C70.7675 57.5128 68.699 56.944 67.7718 55.3384C66.8414 53.727 67.4213 51.6865 68.8492 50.4933Z" fill="#C4C4C4"/>
</svg>
